<?xml version="1.0" encoding="UTF-8" standalone="no"?>
<!DOCTYPE svg PUBLIC "-//W3C//DTD SVG 1.1//EN" "http://www.w3.org/Graphics/SVG/1.1/DTD/svg11.dtd">
<!-- Created with Vectornator (http://vectornator.io/) -->
<svg height="650.0000000000001px" stroke-miterlimit="10" style="fill-rule:nonzero;clip-rule:evenodd;stroke-linecap:round;stroke-linejoin:round;" version="1.1" viewBox="0 0 650 650" width="650.0px" xml:space="preserve" xmlns="http://www.w3.org/2000/svg" xmlns:xlink="http://www.w3.org/1999/xlink">
<defs/>
<g id="Layer-1">
<path d="M0.651591 324.111C0.651591 145.121 145.897 0.0204268 325.065 0.0204268C504.234 0.0204268 649.479 145.121 649.479 324.111C649.479 503.101 504.234 648.202 325.065 648.202C145.897 648.202 0.651591 503.101 0.651591 324.111Z" fill="#ffffff" fill-rule="nonzero" opacity="1" stroke="none"/>
<g opacity="0">
<path d="M213.194 278.528L250.074 161.207L370.117 134.486L453.279 225.085L416.4 342.405L296.357 369.127L213.194 278.528Z" fill="none" opacity="1" stroke="#ffd335" stroke-linecap="butt" stroke-linejoin="miter" stroke-width="29.8212"/>
<path d="M176.495 395.276L213.374 277.955L333.417 251.234L416.58 341.833L379.7 459.153L259.658 485.875L176.495 395.276Z" fill="none" opacity="1" stroke="#000000" stroke-linecap="butt" stroke-linejoin="miter" stroke-width="29.8212"/>
<g opacity="1">
<path d="M468.905 372.07L465.827 290.961L534.53 247.742L606.312 285.631L609.389 366.739L540.686 409.959L468.905 372.07Z" fill="none" opacity="1" stroke="#85d4ff" stroke-linecap="butt" stroke-linejoin="miter" stroke-width="29.8212"/>
<path d="M153.986 273.076L202.917 208.316L171.299 133.56L90.7499 123.564L41.8185 188.324L73.4364 263.08L153.986 273.076Z" fill="none" opacity="1" stroke="#85d4ff" stroke-linecap="butt" stroke-linejoin="miter" stroke-width="29.8212"/>
</g>
</g>
<g opacity="1">
<g opacity="1">
<g opacity="1">
<path d="M125.662 132.269L102.746 200.133L150.061 253.911L220.291 239.824L243.207 171.959L195.892 118.182L125.662 132.269Z" fill="none" opacity="1" stroke="#85d4ff" stroke-linecap="butt" stroke-linejoin="miter" stroke-width="26.6615"/>
<path d="M470.723 249.231L447.808 317.095L495.123 370.873L565.353 356.786L588.268 288.921L540.953 235.144L470.723 249.231Z" fill="none" opacity="1" stroke="#85d4ff" stroke-linecap="butt" stroke-linejoin="miter" stroke-width="26.6615"/>
</g>
<path d="M239.21 265.794L274.05 163.009L380.484 141.789L452.078 223.353L417.238 326.138L310.804 347.358L239.21 265.794Z" fill="none" opacity="1" stroke="#ffd335" stroke-linecap="butt" stroke-linejoin="miter" stroke-width="26.6615"/>
<path d="M204.54 368.077L239.38 265.292L345.814 244.072L417.408 325.636L382.568 428.421L276.134 449.641L204.54 368.077Z" fill="none" opacity="1" stroke="#000000" stroke-linecap="butt" stroke-linejoin="miter" stroke-width="26.6615"/>
</g>
<g opacity="1">
<path d="M148.489 534.54L151.863 534.54L151.863 504.173L148.489 504.173L148.489 493.105L179.464 493.105C185.087 493.105 189.474 494.253 192.623 496.547C195.772 498.841 197.347 502.126 197.347 506.4C197.347 509.054 196.717 511.292 195.457 513.114C194.197 514.936 192.724 516.308 191.037 517.231C189.35 518.153 187.719 518.771 186.144 519.086L186.144 519.761C189.339 520.076 192.218 521.088 194.782 522.798C197.347 524.508 198.629 527.567 198.629 531.976C198.629 536.699 196.852 540.152 193.298 542.334C189.744 544.516 185.132 545.607 179.464 545.607L148.489 545.607L148.489 534.54ZM174.402 515.24C175.707 515.24 176.686 514.891 177.338 514.194C177.99 513.496 178.316 512.406 178.316 510.921L178.316 508.491C178.316 507.007 177.99 505.916 177.338 505.219C176.686 504.521 175.707 504.173 174.402 504.173L170.758 504.173L170.758 515.24L174.402 515.24ZM174.875 534.54C176.179 534.54 177.158 534.191 177.81 533.494C178.463 532.797 178.789 531.706 178.789 530.221L178.789 527.252C178.789 525.767 178.463 524.676 177.81 523.979C177.158 523.282 176.179 522.933 174.875 522.933L170.758 522.933L170.758 534.54L174.875 534.54Z" fill="#ffd335" fill-rule="nonzero" opacity="1" stroke="none"/>
<path d="M220.763 546.552C214.375 546.552 209.381 544.876 205.782 541.525C202.183 538.173 200.383 533.28 200.383 526.847C200.383 520.414 202.183 515.521 205.782 512.169C209.381 508.818 214.375 507.142 220.763 507.142C227.107 507.142 231.684 508.795 234.496 512.102C237.308 515.409 238.714 519.514 238.714 524.418L238.714 529.276L216.849 529.276L216.849 529.681C216.849 531.346 217.344 532.572 218.334 533.359C219.324 534.146 220.966 534.54 223.26 534.54C226.005 534.54 228.614 534.338 231.088 533.933C233.563 533.528 235.722 533.01 237.567 532.381L237.567 543.178C235.992 544.033 233.686 544.809 230.65 545.506C227.613 546.203 224.317 546.552 220.763 546.552ZM224.677 521.853L224.677 521.043C224.677 519.514 224.351 518.412 223.699 517.737C223.047 517.062 222.068 516.724 220.763 516.724C219.459 516.724 218.48 517.073 217.828 517.77C217.175 518.468 216.849 519.559 216.849 521.043L216.849 521.853L224.677 521.853Z" fill="#ffd335" fill-rule="nonzero" opacity="1" stroke="none"/>
<path d="M260.848 546.552C254.46 546.552 249.466 544.876 245.867 541.525C242.268 538.173 240.468 533.28 240.468 526.847C240.468 520.414 242.268 515.521 245.867 512.169C249.466 508.818 254.46 507.142 260.848 507.142C267.192 507.142 271.769 508.795 274.581 512.102C277.393 515.409 278.799 519.514 278.799 524.418L278.799 529.276L256.934 529.276L256.934 529.681C256.934 531.346 257.429 532.572 258.419 533.359C259.409 534.146 261.051 534.54 263.345 534.54C266.09 534.54 268.699 534.338 271.173 533.933C273.648 533.528 275.807 533.01 277.652 532.381L277.652 543.178C276.077 544.033 273.771 544.809 270.735 545.506C267.698 546.203 264.403 546.552 260.848 546.552ZM264.762 521.853L264.762 521.043C264.762 519.514 264.436 518.412 263.784 517.737C263.132 517.062 262.153 516.724 260.848 516.724C259.544 516.724 258.565 517.073 257.913 517.77C257.261 518.468 256.934 519.559 256.934 521.043L256.934 521.853L264.762 521.853Z" fill="#ffd335" fill-rule="nonzero" opacity="1" stroke="none"/>
<path d="M292.026 545.607L283.118 519.154L280.284 519.154L280.284 508.087L301.136 508.087L301.136 519.154L298.302 519.154L300.731 529.681L301.406 529.681L306.332 508.087L318.749 508.087L323.675 529.681L324.35 529.681L326.712 519.154L323.878 519.154L323.878 508.087L343.448 508.087L343.448 519.154L340.614 519.154L332.043 545.607L315.645 545.607L311.933 526.847L311.258 526.847L307.547 545.607L292.026 545.607Z" fill="#000000" fill-rule="nonzero" opacity="1" stroke="none"/>
<path d="M384.005 534.54L384.005 545.607L366.19 545.607L366.19 541.018C365.2 542.458 363.817 543.74 362.04 544.865C360.262 545.99 358.092 546.552 355.527 546.552C352.153 546.552 349.499 545.652 347.564 543.853C345.63 542.053 344.663 539.511 344.663 536.227C344.663 527.724 351.883 523.36 366.325 523.135C366.19 521.606 365.605 520.56 364.57 519.997C363.535 519.435 361.781 519.154 359.306 519.154C357.282 519.154 355.111 519.368 352.794 519.795C350.477 520.222 348.352 520.796 346.417 521.516L346.417 509.099C348.802 508.514 351.388 508.042 354.178 507.682C356.967 507.322 359.689 507.142 362.343 507.142C369.047 507.142 373.838 508.357 376.717 510.786C379.596 513.215 381.036 516.972 381.036 522.056L381.036 534.54L384.005 534.54ZM366.19 529.816C364.165 529.816 362.602 530.086 361.5 530.626C360.397 531.166 359.846 532.066 359.846 533.325C359.846 534.09 360.083 534.709 360.555 535.181C361.027 535.654 361.691 535.89 362.546 535.89C363.715 535.89 364.615 535.395 365.245 534.405C365.875 533.415 366.19 532.021 366.19 530.221L366.19 529.816Z" fill="#000000" fill-rule="nonzero" opacity="1" stroke="none"/>
<path d="M414.98 507.142C415.88 507.142 416.735 507.232 417.545 507.412C418.354 507.592 419.029 507.817 419.569 508.087L419.569 520.976C417.724 520.211 415.745 519.829 413.631 519.829C410.796 519.829 408.614 520.571 407.085 522.056C405.555 523.54 404.79 525.745 404.79 528.669L404.79 534.54L410.864 534.54L410.864 545.607L386.3 545.607L386.3 534.54L389.269 534.54L389.269 519.154L386.3 519.154L386.3 508.087L404.79 508.087L404.79 513.013C406.05 511.123 407.49 509.672 409.109 508.66C410.729 507.648 412.686 507.142 414.98 507.142Z" fill="#000000" fill-rule="nonzero" opacity="1" stroke="none"/>
<path d="M441.839 546.552C435.45 546.552 430.456 544.876 426.857 541.525C423.258 538.173 421.459 533.28 421.459 526.847C421.459 520.414 423.258 515.521 426.857 512.169C430.456 508.818 435.45 507.142 441.839 507.142C448.182 507.142 452.76 508.795 455.571 512.102C458.383 515.409 459.789 519.514 459.789 524.418L459.789 529.276L437.924 529.276L437.924 529.681C437.924 531.346 438.419 532.572 439.409 533.359C440.399 534.146 442.041 534.54 444.335 534.54C447.08 534.54 449.689 534.338 452.163 533.933C454.638 533.528 456.797 533.01 458.642 532.381L458.642 543.178C457.067 544.033 454.762 544.809 451.725 545.506C448.688 546.203 445.393 546.552 441.839 546.552ZM445.753 521.853L445.753 521.043C445.753 519.514 445.426 518.412 444.774 517.737C444.122 517.062 443.143 516.724 441.839 516.724C440.534 516.724 439.555 517.073 438.903 517.77C438.251 518.468 437.924 519.559 437.924 521.043L437.924 521.853L445.753 521.853Z" fill="#000000" fill-rule="nonzero" opacity="1" stroke="none"/>
</g>
</g>
</g>
</svg>
